<?xml version="1.0" encoding="utf-8"?>
<!-- Generator: Adobe Illustrator 22.1.0, SVG Export Plug-In . SVG Version: 6.00 Build 0)  -->
<svg version="1.1" id="Layer_1" xmlns="http://www.w3.org/2000/svg" xmlns:xlink="http://www.w3.org/1999/xlink" x="0px" y="0px"
	 viewBox="0 0 500 135" style="enable-background:new 0 0 500 135;" xml:space="preserve">
<style type="text/css">
	.st0{fill:#23346A;}
	.st1{fill:#CA2128;}
</style>
<g>
	<g>
		<path class="st0" d="M210.2,11.6C221.8,2.1,237.6,0.8,252,0c17.3,0.1,34.7-0.4,52,0.3c-2.5,7.1-5.4,14.2-8.6,21
			c-15.9,0.3-31.8-0.2-47.7-0.2c-1,0-2.5-0.1-2.5-0.1L243.6,6l-9.1,15l-15.6,0.3l10.4,9.8l-7.1,14.3l14.6-8.3l11.1,9.1l-1.2-14.4
			l2.3-2.2c0,0,22.3-0.4,33.3,1c3.9,0.5,9.4,3.1,8.6,7.6c-2,7.9-9.9,12.6-17.3,14.7c-1.2-1-2.3-2-4-2.2c-11.7-0.3-23.5,0-35.2-0.1
			c-8.9,0.5-18,0.3-26.5-2.5c-5.7-1.9-10.4-6.8-10.8-13C197.5,25.8,203.4,17.7,210.2,11.6z"/>
		<path class="st0" d="M120.3,15.1c9.8-5.5,21.3-6.1,32.3-6.1c14,0.2,42.1,0.3,42.1,0.3l-7,16.2c0,0-32.6,0-47.3,0.1
			c-3.1,0-6.8-0.1-8.6,1.8c-1.3,1.2-0.7,4.1,1.3,4.1c13.3,0.8,26.7-0.3,40,0.8c6.1,0.8,13.8,3.1,15,10.1c0.9,7.3-3.3,14.4-8.6,19.2
			c-6.7,6.9-17,9.3-25.8,9.4c-20.5-0.2-61.5-0.3-61.5-0.3l6.6-15.5c0,0,38-0.1,57-0.3c3.7,0,9.8,0.2,10.8-3.6
			c0.4-2.6-2.8-3.2-4.7-3.3c-11.8-0.1-23.6,0-35.4-0.1c-5.2-0.8-10.9-0.9-15.4-4c-3.8-2.5-5.4-7.6-4-11.9
			C108.9,24.9,114.2,19,120.3,15.1z"/>
		<path class="st1" d="M294.7,35.9c6.2,9.5,3.9,23.3-5,30.5c-12.2,9.8-28.3,13.2-43.5,14c-15.9,0.9-31.9,0.1-47.5,3.2
			c-12.5,2.4-25.9,6.8-34,17.2c-1,1.2-1.6,2.3-2.2,3.7c-2.2-7.2-3.1-15.2,0.7-22c4.5-8.1,13.5-11.9,22.1-14.2
			c15.7-4,31.8-4.5,47.9-5.5c16.1-1.4,32.9-1.6,48-8.1C288.6,51.4,294.9,44.4,294.7,35.9z"/>
		<path class="st1" d="M289.8,78.2c3.1-2.6,5.2-6.2,7.2-9.6c1,1.2,1,2.9,1,4.3c-0.5,8.7-4.6,16.9-10.8,22.9
			c-12.8,11.9-31.3,12.9-47.8,14.3c-17.2,1.6-34.7,2.4-51.2,8.1c-8.5,2.9-16.7,8.3-20.2,16.9c-4.4-10.4-1.3-23.8,8.4-30.1
			c13.6-9.3,30.5-11,46.4-12.4c9.7-0.7,19.5-0.2,29.4-0.7C265.7,91.4,279.5,87.3,289.8,78.2z"/>
	</g>
	<path class="st0" d="M330.3,15c9.8-5.5,21.3-6.1,32.3-6.1c14,0.2,42.1,0.3,42.1,0.3l-7,16.2c0,0-32.6,0-47.3,0.1
		c-3.1,0-6.8-0.1-8.6,1.8c-1.3,1.2-0.7,4.1,1.3,4.1c13.3,0.8,26.7-0.3,40,0.8c6.1,0.8,13.8,3.1,15,10.1c0.9,7.3-3.3,14.4-8.6,19.2
		c-6.7,6.9-17,9.3-25.8,9.4c-20.5-0.2-61.5-0.3-61.5-0.3l6.6-15.5c0,0,38-0.1,57-0.3c3.7,0,9.8,0.2,10.8-3.6
		c0.4-2.5-2.8-3.2-4.7-3.3c-11.8-0.1-23.6,0-35.4-0.1c-5.2-0.8-10.9-0.9-15.4-4c-3.8-2.5-5.4-7.6-4-11.9
		C318.9,24.8,324.2,18.9,330.3,15z"/>
	<g>
		<path class="st0" d="M430.5,9.1c14.5,0,29.1,0,43.6,0c7.3,0.6,15.2,0.4,21.8,4.3c4.5,2.8,5,8.8,3.5,13.4
			c-4.7,14.3-9.2,28.8-13.9,43.1c-21-0.5-42-0.3-63.1-0.4c-6.6-0.1-11.9-0.7-16.8-3.9c-4.1-2.8-4.3-8.4-3-12.7
			c3.1-10.1,12.4-17.3,22.5-19.5c14.8-3.5,30.1-0.9,45.2-2.1c2.9-0.5,5.4-1.2,6.7-3.6c0.2-2.7-3.6-2.2-5.4-2.5
			c-15.9-0.4-31.8,0-47.7-0.2C426.2,19.8,428,14.3,430.5,9.1z M424.3,53.6c14.5,0.6,29.3,0.3,44,0.5c0.9-2.5,1.9-4.9,2.6-7.4
			c-13.4,0.4-26.8,0.2-40.2,0.6C418.5,47.3,421.2,53.5,424.3,53.6z"/>
	</g>
	<path class="st0" d="M19.7,9.9c7.9-0.2,15.9-0.2,23.8,0C37.8,23,32.1,36.2,26.3,49.4c-1.3,2.1,0.7,4.5,3,4.2
		c11.8,0.1,23.7,0,35.5,0C71.1,39,77.2,24.4,83.5,9.8c8.3,0,16.6-0.1,24.9,0C99.7,30.3,91,50.7,82.2,71.2c-21.6,0.1-43.1,0.1-64.7,0
		C11.8,71,5.1,70,1.7,64.9c-2.7-4.4-1.3-10,0.5-14.5C8.1,36.9,13.6,23.2,19.7,9.9z"/>
</g>
</svg>
